<svg width="578" height="406" xmlns="http://www.w3.org/2000/svg" xmlns:xlink="http://www.w3.org/1999/xlink" overflow="hidden"><defs><clipPath id="clip0"><path d="M351 157 929 157 929 563 351 563Z" fill-rule="evenodd" clip-rule="evenodd"/></clipPath><clipPath id="clip1"><path d="M352 158 927 158 927 561 352 561Z" fill-rule="evenodd" clip-rule="evenodd"/></clipPath><clipPath id="clip2"><path d="M352 158 927 158 927 561 352 561Z" fill-rule="evenodd" clip-rule="evenodd"/></clipPath><clipPath id="clip3"><path d="M352 158 927 158 927 561 352 561Z" fill-rule="evenodd" clip-rule="evenodd"/></clipPath><clipPath id="clip4"><path d="M352 158 927 158 927 561 352 561Z" fill-rule="evenodd" clip-rule="evenodd"/></clipPath><clipPath id="clip5"><path d="M352 158 927 158 927 561 352 561Z" fill-rule="evenodd" clip-rule="evenodd"/></clipPath><clipPath id="clip6"><path d="M352 158 927 158 927 561 352 561Z" fill-rule="evenodd" clip-rule="evenodd"/></clipPath><clipPath id="clip7"><path d="M352 158 927 158 927 561 352 561Z" fill-rule="evenodd" clip-rule="evenodd"/></clipPath><clipPath id="clip8"><path d="M445 209 849 209 849 506 445 506Z" fill-rule="evenodd" clip-rule="evenodd"/></clipPath><clipPath id="clip9"><path d="M352 158 927 158 927 561 352 561Z" fill-rule="evenodd" clip-rule="evenodd"/></clipPath><clipPath id="clip10"><path d="M445 209 849 209 849 506 445 506Z" fill-rule="evenodd" clip-rule="evenodd"/></clipPath><clipPath id="clip11"><path d="M352 158 927 158 927 561 352 561Z" fill-rule="evenodd" clip-rule="evenodd"/></clipPath><clipPath id="clip12"><path d="M445 209 849 209 849 506 445 506Z" fill-rule="evenodd" clip-rule="evenodd"/></clipPath><clipPath id="clip13"><path d="M352 158 927 158 927 561 352 561Z" fill-rule="evenodd" clip-rule="evenodd"/></clipPath><clipPath id="clip14"><path d="M352 158 927 158 927 561 352 561Z" fill-rule="evenodd" clip-rule="evenodd"/></clipPath><clipPath id="clip15"><path d="M352 158 927 158 927 561 352 561Z" fill-rule="evenodd" clip-rule="evenodd"/></clipPath><clipPath id="clip16"><path d="M352 158 927 158 927 561 352 561Z" fill-rule="evenodd" clip-rule="evenodd"/></clipPath><clipPath id="clip17"><path d="M352 158 927 158 927 561 352 561Z" fill-rule="evenodd" clip-rule="evenodd"/></clipPath><clipPath id="clip18"><path d="M352 158 927 158 927 561 352 561Z" fill-rule="evenodd" clip-rule="evenodd"/></clipPath><clipPath id="clip19"><path d="M352 158 927 158 927 561 352 561Z" fill-rule="evenodd" clip-rule="evenodd"/></clipPath><clipPath id="clip20"><path d="M352 158 927 158 927 561 352 561Z" fill-rule="evenodd" clip-rule="evenodd"/></clipPath><clipPath id="clip21"><path d="M352 158 927 158 927 561 352 561Z" fill-rule="evenodd" clip-rule="evenodd"/></clipPath><clipPath id="clip22"><path d="M352 158 927 158 927 561 352 561Z" fill-rule="evenodd" clip-rule="evenodd"/></clipPath><clipPath id="clip23"><path d="M352 158 927 158 927 561 352 561Z" fill-rule="evenodd" clip-rule="evenodd"/></clipPath><clipPath id="clip24"><path d="M352 158 927 158 927 561 352 561Z" fill-rule="evenodd" clip-rule="evenodd"/></clipPath><clipPath id="clip25"><path d="M352 158 927 158 927 561 352 561Z" fill-rule="evenodd" clip-rule="evenodd"/></clipPath><clipPath id="clip26"><path d="M352 158 927 158 927 561 352 561Z" fill-rule="evenodd" clip-rule="evenodd"/></clipPath><clipPath id="clip27"><path d="M352 158 927 158 927 561 352 561Z" fill-rule="evenodd" clip-rule="evenodd"/></clipPath><clipPath id="clip28"><path d="M352 158 927 158 927 561 352 561Z" fill-rule="evenodd" clip-rule="evenodd"/></clipPath><clipPath id="clip29"><path d="M352 158 927 158 927 561 352 561Z" fill-rule="evenodd" clip-rule="evenodd"/></clipPath><clipPath id="clip30"><path d="M352 158 927 158 927 561 352 561Z" fill-rule="evenodd" clip-rule="evenodd"/></clipPath><clipPath id="clip31"><path d="M352 158 927 158 927 561 352 561Z" fill-rule="evenodd" clip-rule="evenodd"/></clipPath><clipPath id="clip32"><path d="M352 158 927 158 927 561 352 561Z" fill-rule="evenodd" clip-rule="evenodd"/></clipPath><clipPath id="clip33"><path d="M352 158 927 158 927 561 352 561Z" fill-rule="evenodd" clip-rule="evenodd"/></clipPath><clipPath id="clip34"><path d="M352 158 927 158 927 561 352 561Z" fill-rule="evenodd" clip-rule="evenodd"/></clipPath><clipPath id="clip35"><path d="M352 158 927 158 927 561 352 561Z" fill-rule="evenodd" clip-rule="evenodd"/></clipPath><clipPath id="clip36"><path d="M352 158 927 158 927 561 352 561Z" fill-rule="evenodd" clip-rule="evenodd"/></clipPath><clipPath id="clip37"><path d="M352 158 927 158 927 561 352 561Z" fill-rule="evenodd" clip-rule="evenodd"/></clipPath><clipPath id="clip38"><path d="M352 158 927 158 927 561 352 561Z" fill-rule="evenodd" clip-rule="evenodd"/></clipPath><clipPath id="clip39"><path d="M352 158 927 158 927 561 352 561Z" fill-rule="evenodd" clip-rule="evenodd"/></clipPath><clipPath id="clip40"><path d="M352 158 927 158 927 561 352 561Z" fill-rule="evenodd" clip-rule="evenodd"/></clipPath></defs><g clip-path="url(#clip0)" transform="translate(-351 -157)"><rect x="352" y="159" width="576" height="402" fill="#FFFFFF"/><g clip-path="url(#clip1)"><rect x="446" y="209" width="402" height="296" fill="#FFFFFF"/></g><g clip-path="url(#clip2)"><path d="M445.5 505.5 848.5 505.5M445.5 472.5 848.5 472.5M445.5 439.5 848.5 439.5M445.5 406.5 848.5 406.5M445.5 373.5 848.5 373.5M445.5 340.5 848.5 340.5M445.5 307.5 848.5 307.5M445.5 274.5 848.5 274.5M445.5 241.5 848.5 241.5M445.5 209.5 848.5 209.5" stroke="#000000" stroke-width="0.333333" stroke-linejoin="round" stroke-miterlimit="10" fill="none"/></g><g clip-path="url(#clip3)"><rect x="445.5" y="209.5" width="403" height="296" stroke="#808080" stroke-width="1.33333" stroke-linejoin="round" stroke-miterlimit="10" fill="none"/></g><g clip-path="url(#clip4)"><path d="M0 0 0.000104987 296" stroke="#000000" stroke-width="0.333333" stroke-linejoin="round" stroke-miterlimit="10" fill="none" fill-rule="evenodd" transform="matrix(1 0 0 -1 445.5 505.5)"/></g><g clip-path="url(#clip5)"><path d="M440.5 505.5 445.5 505.5M440.5 472.5 445.5 472.5M440.5 439.5 445.5 439.5M440.5 406.5 445.5 406.5M440.5 373.5 445.5 373.5M440.5 340.5 445.5 340.5M440.5 307.5 445.5 307.5M440.5 274.5 445.5 274.5M440.5 241.5 445.5 241.5M440.5 209.5 445.5 209.5" stroke="#000000" stroke-width="0.333333" stroke-linejoin="round" stroke-miterlimit="10" fill="none"/></g><g clip-path="url(#clip6)"><path d="M445.5 505.5 848.5 505.5" stroke="#000000" stroke-width="0.333333" stroke-linejoin="round" stroke-miterlimit="10" fill="none" fill-rule="evenodd"/></g><g clip-path="url(#clip7)"><path d="M445.5 505.5 445.5 509.5M579.5 505.5 579.5 509.5M714.5 505.5 714.5 509.5M848.5 505.5 848.5 509.5" stroke="#000000" stroke-width="0.333333" stroke-linejoin="round" stroke-miterlimit="10" fill="none"/></g><g clip-path="url(#clip8)"><path d="M512.5 354.5 646.5 292.5 781.5 230.5" stroke="#FF0000" stroke-width="2.66667" stroke-linecap="round" stroke-linejoin="round" stroke-miterlimit="10" fill="none"/></g><g clip-path="url(#clip9)"><path d="M512.667 348.167 519.333 361.5 506 361.5Z" stroke="#FF0000" stroke-width="0.666667" stroke-linejoin="round" stroke-miterlimit="10" fill="#FF0000" fill-opacity="0.960784"/><path d="M647 285.833 653.667 299.167 640.333 299.167Z" stroke="#FF0000" stroke-width="0.666667" stroke-linejoin="round" stroke-miterlimit="10" fill="#FF0000" fill-opacity="0.960784"/><path d="M781.167 223.5 787.833 236.833 774.5 236.833Z" stroke="#FF0000" stroke-width="0.666667" stroke-linejoin="round" stroke-miterlimit="10" fill="#FF0000" fill-opacity="0.960784"/></g><g clip-path="url(#clip10)"><path d="M512.5 412.5 646.5 378.5 781.5 344.5" stroke="#000000" stroke-width="2.66667" stroke-linecap="round" stroke-linejoin="round" stroke-miterlimit="10" fill="none"/></g><g clip-path="url(#clip11)"><path d="M512.667 405.333 519.333 412 512.667 418.667 506 412Z" stroke="#000000" stroke-width="0.666667" stroke-linejoin="round" stroke-miterlimit="10" stroke-opacity="0.941176"/><path d="M647 371.667 653.667 378.333 647 385 640.333 378.333Z" stroke="#000000" stroke-width="0.666667" stroke-linejoin="round" stroke-miterlimit="10" stroke-opacity="0.941176"/><path d="M781.167 338 787.833 344.667 781.167 351.333 774.5 344.667Z" stroke="#000000" stroke-width="0.666667" stroke-linejoin="round" stroke-miterlimit="10" stroke-opacity="0.941176"/></g><g clip-path="url(#clip12)"><path d="M512.5 469.5 646.5 464.5 781.5 459.5" stroke="#00B0F0" stroke-width="2.66667" stroke-linecap="round" stroke-linejoin="round" stroke-miterlimit="10" fill="none"/></g><g clip-path="url(#clip13)"><path d="M512.667 462.5 519.333 475.833 506 475.833Z" stroke="#00B0F0" stroke-width="0.666667" stroke-linejoin="round" stroke-miterlimit="10" fill="#00B0F0"/><path d="M647 457.5 653.667 470.833 640.333 470.833Z" stroke="#00B0F0" stroke-width="0.666667" stroke-linejoin="round" stroke-miterlimit="10" fill="#00B0F0"/><path d="M781.167 452.5 787.833 465.833 774.5 465.833Z" stroke="#00B0F0" stroke-width="0.666667" stroke-linejoin="round" stroke-miterlimit="10" fill="#00B0F0"/></g><g clip-path="url(#clip14)"><text font-family="Arial,Arial_MSFontService,sans-serif" font-weight="400" font-size="16" transform="translate(409.567 510)">2.8</text></g><g clip-path="url(#clip15)"><text font-family="Arial,Arial_MSFontService,sans-serif" font-weight="400" font-size="16" transform="translate(409.567 477)">2.9</text></g><g clip-path="url(#clip16)"><text font-family="Arial,Arial_MSFontService,sans-serif" font-weight="400" font-size="16" transform="translate(422.913 444)">3</text></g><g clip-path="url(#clip17)"><text font-family="Arial,Arial_MSFontService,sans-serif" font-weight="400" font-size="16" transform="translate(409.567 411)">3.1</text></g><g clip-path="url(#clip18)"><text font-family="Arial,Arial_MSFontService,sans-serif" font-weight="400" font-size="16" transform="translate(409.567 378)">3.2</text></g><g clip-path="url(#clip19)"><text font-family="Arial,Arial_MSFontService,sans-serif" font-weight="400" font-size="16" transform="translate(409.567 345)">3.3</text></g><g clip-path="url(#clip20)"><text font-family="Arial,Arial_MSFontService,sans-serif" font-weight="400" font-size="16" transform="translate(409.567 312)">3.4</text></g><g clip-path="url(#clip21)"><text font-family="Arial,Arial_MSFontService,sans-serif" font-weight="400" font-size="16" transform="translate(409.567 279)">3.5</text></g><g clip-path="url(#clip22)"><text font-family="Arial,Arial_MSFontService,sans-serif" font-weight="400" font-size="16" transform="translate(409.567 247)">3.6</text></g><g clip-path="url(#clip23)"><text font-family="Arial,Arial_MSFontService,sans-serif" font-weight="400" font-size="16" transform="translate(409.567 214)">3.7</text></g><g clip-path="url(#clip24)"><text font-family="Arial,Arial_MSFontService,sans-serif" font-weight="400" font-size="13" transform="translate(502.711 525)">low</text></g><g clip-path="url(#clip25)"><text font-family="Arial,Arial_MSFontService,sans-serif" font-weight="400" font-size="13" transform="translate(634.001 525)">med</text></g><g clip-path="url(#clip26)"><text font-family="Arial,Arial_MSFontService,sans-serif" font-weight="400" font-size="13" transform="translate(768.624 525)">high</text></g><g clip-path="url(#clip27)"><text font-family="Arial,Arial_MSFontService,sans-serif" font-weight="700" font-size="16" transform="matrix(6.12323e-17 -1 1 6.12323e-17 376.886 433)">Work Engagement                  </text></g><g clip-path="url(#clip28)"><text font-family="Arial,Arial_MSFontService,sans-serif" font-weight="700" font-size="16" transform="translate(563.083 547)">Challenge Stressor</text></g><g clip-path="url(#clip29)"><text font-family="Arial,Arial_MSFontService,sans-serif" font-weight="700" font-size="19" transform="translate(483.947 191)">Moderation effect of Conscientiousness</text></g><g clip-path="url(#clip30)"><rect x="857.5" y="284.5" width="63" height="126" stroke="#000000" stroke-width="0.333333" stroke-linejoin="round" stroke-miterlimit="10" fill="#FFFFFF"/></g><g clip-path="url(#clip31)"><text font-family="Arial,Arial_MSFontService,sans-serif" font-weight="400" font-size="13" transform="translate(890.603 304)">C</text></g><g clip-path="url(#clip32)"><path d="M862.5 331.5 887.5 331.5" stroke="#FF0000" stroke-width="2.66667" stroke-linecap="round" stroke-linejoin="round" stroke-miterlimit="10" fill="none" fill-rule="evenodd"/></g><g clip-path="url(#clip33)"><path d="M875 327.5 879 335.5 871 335.5Z" stroke="#FF0000" stroke-width="0.666667" stroke-linejoin="round" stroke-miterlimit="10" fill="#FF0000" fill-opacity="0.960784"/></g><g clip-path="url(#clip34)"><text font-family="Arial,Arial_MSFontService,sans-serif" font-weight="400" font-size="13" transform="translate(890.603 336)">high</text></g><g clip-path="url(#clip35)"><path d="M862.5 363.5 887.5 363.5" stroke="#000000" stroke-width="2.66667" stroke-linecap="round" stroke-linejoin="round" stroke-miterlimit="10" fill="none" fill-rule="evenodd"/></g><g clip-path="url(#clip36)"><path d="M875 359.167 879 363.167 875 367.167 871 363.167Z" stroke="#000000" stroke-width="0.666667" stroke-linejoin="round" stroke-miterlimit="10" stroke-opacity="0.941176"/></g><g clip-path="url(#clip37)"><text font-family="Arial,Arial_MSFontService,sans-serif" font-weight="400" font-size="13" transform="translate(890.603 367)">med</text></g><g clip-path="url(#clip38)"><path d="M862.5 394.5 887.5 394.5" stroke="#00B0F0" stroke-width="2.66667" stroke-linecap="round" stroke-linejoin="round" stroke-miterlimit="10" fill="none" fill-rule="evenodd"/></g><g clip-path="url(#clip39)"><path d="M875 390.667 879 398.667 871 398.667Z" stroke="#00B0F0" stroke-width="0.666667" stroke-linejoin="round" stroke-miterlimit="10" fill="#00B0F0"/></g><g clip-path="url(#clip40)"><text font-family="Arial,Arial_MSFontService,sans-serif" font-weight="400" font-size="13" transform="translate(890.603 399)">low</text></g><rect x="352.5" y="159.5" width="576" height="402" stroke="#8497B0" stroke-width="1.33333" stroke-miterlimit="8" fill="none"/></g></svg>