<svg width="578" height="406" xmlns="http://www.w3.org/2000/svg" xmlns:xlink="http://www.w3.org/1999/xlink" overflow="hidden"><defs><clipPath id="clip0"><path d="M351 157 929 157 929 563 351 563Z" fill-rule="evenodd" clip-rule="evenodd"/></clipPath><clipPath id="clip1"><path d="M352 158 928 158 928 561 352 561Z" fill-rule="evenodd" clip-rule="evenodd"/></clipPath><clipPath id="clip2"><path d="M352 158 928 158 928 561 352 561Z" fill-rule="evenodd" clip-rule="evenodd"/></clipPath><clipPath id="clip3"><path d="M352 158 928 158 928 561 352 561Z" fill-rule="evenodd" clip-rule="evenodd"/></clipPath><clipPath id="clip4"><path d="M352 158 928 158 928 561 352 561Z" fill-rule="evenodd" clip-rule="evenodd"/></clipPath><clipPath id="clip5"><path d="M352 158 928 158 928 561 352 561Z" fill-rule="evenodd" clip-rule="evenodd"/></clipPath><clipPath id="clip6"><path d="M352 158 928 158 928 561 352 561Z" fill-rule="evenodd" clip-rule="evenodd"/></clipPath><clipPath id="clip7"><path d="M352 158 928 158 928 561 352 561Z" fill-rule="evenodd" clip-rule="evenodd"/></clipPath><clipPath id="clip8"><path d="M444 209 847 209 847 502 444 502Z" fill-rule="evenodd" clip-rule="evenodd"/></clipPath><clipPath id="clip9"><path d="M352 158 928 158 928 561 352 561Z" fill-rule="evenodd" clip-rule="evenodd"/></clipPath><clipPath id="clip10"><path d="M444 209 847 209 847 502 444 502Z" fill-rule="evenodd" clip-rule="evenodd"/></clipPath><clipPath id="clip11"><path d="M352 158 928 158 928 561 352 561Z" fill-rule="evenodd" clip-rule="evenodd"/></clipPath><clipPath id="clip12"><path d="M444 209 847 209 847 502 444 502Z" fill-rule="evenodd" clip-rule="evenodd"/></clipPath><clipPath id="clip13"><path d="M352 158 928 158 928 561 352 561Z" fill-rule="evenodd" clip-rule="evenodd"/></clipPath><clipPath id="clip14"><path d="M352 158 928 158 928 561 352 561Z" fill-rule="evenodd" clip-rule="evenodd"/></clipPath><clipPath id="clip15"><path d="M352 158 928 158 928 561 352 561Z" fill-rule="evenodd" clip-rule="evenodd"/></clipPath><clipPath id="clip16"><path d="M352 158 928 158 928 561 352 561Z" fill-rule="evenodd" clip-rule="evenodd"/></clipPath><clipPath id="clip17"><path d="M352 158 928 158 928 561 352 561Z" fill-rule="evenodd" clip-rule="evenodd"/></clipPath><clipPath id="clip18"><path d="M352 158 928 158 928 561 352 561Z" fill-rule="evenodd" clip-rule="evenodd"/></clipPath><clipPath id="clip19"><path d="M352 158 928 158 928 561 352 561Z" fill-rule="evenodd" clip-rule="evenodd"/></clipPath><clipPath id="clip20"><path d="M352 158 928 158 928 561 352 561Z" fill-rule="evenodd" clip-rule="evenodd"/></clipPath><clipPath id="clip21"><path d="M352 158 928 158 928 561 352 561Z" fill-rule="evenodd" clip-rule="evenodd"/></clipPath><clipPath id="clip22"><path d="M352 158 928 158 928 561 352 561Z" fill-rule="evenodd" clip-rule="evenodd"/></clipPath><clipPath id="clip23"><path d="M352 158 928 158 928 561 352 561Z" fill-rule="evenodd" clip-rule="evenodd"/></clipPath><clipPath id="clip24"><path d="M352 158 928 158 928 561 352 561Z" fill-rule="evenodd" clip-rule="evenodd"/></clipPath><clipPath id="clip25"><path d="M352 158 928 158 928 561 352 561Z" fill-rule="evenodd" clip-rule="evenodd"/></clipPath><clipPath id="clip26"><path d="M352 158 928 158 928 561 352 561Z" fill-rule="evenodd" clip-rule="evenodd"/></clipPath><clipPath id="clip27"><path d="M352 158 928 158 928 561 352 561Z" fill-rule="evenodd" clip-rule="evenodd"/></clipPath><clipPath id="clip28"><path d="M352 158 928 158 928 561 352 561Z" fill-rule="evenodd" clip-rule="evenodd"/></clipPath><clipPath id="clip29"><path d="M352 158 928 158 928 561 352 561Z" fill-rule="evenodd" clip-rule="evenodd"/></clipPath><clipPath id="clip30"><path d="M352 158 928 158 928 561 352 561Z" fill-rule="evenodd" clip-rule="evenodd"/></clipPath><clipPath id="clip31"><path d="M352 158 928 158 928 561 352 561Z" fill-rule="evenodd" clip-rule="evenodd"/></clipPath><clipPath id="clip32"><path d="M352 158 928 158 928 561 352 561Z" fill-rule="evenodd" clip-rule="evenodd"/></clipPath><clipPath id="clip33"><path d="M352 158 928 158 928 561 352 561Z" fill-rule="evenodd" clip-rule="evenodd"/></clipPath><clipPath id="clip34"><path d="M352 158 928 158 928 561 352 561Z" fill-rule="evenodd" clip-rule="evenodd"/></clipPath><clipPath id="clip35"><path d="M352 158 928 158 928 561 352 561Z" fill-rule="evenodd" clip-rule="evenodd"/></clipPath><clipPath id="clip36"><path d="M352 158 928 158 928 561 352 561Z" fill-rule="evenodd" clip-rule="evenodd"/></clipPath><clipPath id="clip37"><path d="M352 158 928 158 928 561 352 561Z" fill-rule="evenodd" clip-rule="evenodd"/></clipPath><clipPath id="clip38"><path d="M352 158 928 158 928 561 352 561Z" fill-rule="evenodd" clip-rule="evenodd"/></clipPath><clipPath id="clip39"><path d="M352 158 928 158 928 561 352 561Z" fill-rule="evenodd" clip-rule="evenodd"/></clipPath><clipPath id="clip40"><path d="M352 158 928 158 928 561 352 561Z" fill-rule="evenodd" clip-rule="evenodd"/></clipPath></defs><g clip-path="url(#clip0)" transform="translate(-351 -157)"><rect x="352" y="159" width="576" height="402" fill="#FFFFFF"/><g clip-path="url(#clip1)"><rect x="445" y="209" width="401" height="292" fill="#FFFFFF"/></g><g clip-path="url(#clip2)"><path d="M444.5 501.5 846.5 501.5M444.5 464.5 846.5 464.5M444.5 428.5 846.5 428.5M444.5 391.5 846.5 391.5M444.5 355.5 846.5 355.5M444.5 318.5 846.5 318.5M444.5 282.5 846.5 282.5M444.5 245.5 846.5 245.5M444.5 209.5 846.5 209.5" stroke="#000000" stroke-width="0.333333" stroke-linejoin="round" stroke-miterlimit="10" fill="none"/></g><g clip-path="url(#clip3)"><rect x="444.5" y="209.5" width="402" height="292" stroke="#808080" stroke-width="1.33333" stroke-linejoin="round" stroke-miterlimit="10" fill="none"/></g><g clip-path="url(#clip4)"><path d="M0 0 0.000104987 292" stroke="#000000" stroke-width="0.333333" stroke-linejoin="round" stroke-miterlimit="10" fill="none" fill-rule="evenodd" transform="matrix(1 0 0 -1 444.5 501.5)"/></g><g clip-path="url(#clip5)"><path d="M440.5 501.5 444.5 501.5M440.5 464.5 444.5 464.5M440.5 428.5 444.5 428.5M440.5 391.5 444.5 391.5M440.5 355.5 444.5 355.5M440.5 318.5 444.5 318.5M440.5 282.5 444.5 282.5M440.5 245.5 444.5 245.5M440.5 209.5 444.5 209.5" stroke="#000000" stroke-width="0.333333" stroke-linejoin="round" stroke-miterlimit="10" fill="none"/></g><g clip-path="url(#clip6)"><path d="M444.5 501.5 846.5 501.5" stroke="#000000" stroke-width="0.333333" stroke-linejoin="round" stroke-miterlimit="10" fill="none" fill-rule="evenodd"/></g><g clip-path="url(#clip7)"><path d="M444.5 501.5 444.5 505.5M578.5 501.5 578.5 505.5M712.5 501.5 712.5 505.5M846.5 501.5 846.5 505.5" stroke="#000000" stroke-width="0.333333" stroke-linejoin="round" stroke-miterlimit="10" fill="none"/></g><g clip-path="url(#clip8)"><path d="M511.5 338.5 645.5 408.5 779.5 477.5" stroke="#FF0000" stroke-width="2.66667" stroke-linecap="round" stroke-linejoin="round" stroke-miterlimit="10" fill="none"/></g><g clip-path="url(#clip9)"><path d="M511.833 332.051 518.5 345.384 505.167 345.384Z" stroke="#FF0000" stroke-width="0.666667" stroke-linejoin="round" stroke-miterlimit="10" fill="#FF0000"/><path d="M645.667 401.384 652.333 414.718 639 414.718Z" stroke="#FF0000" stroke-width="0.666667" stroke-linejoin="round" stroke-miterlimit="10" fill="#FF0000"/><path d="M779.5 470.718 786.167 484.051 772.833 484.051Z" stroke="#FF0000" stroke-width="0.666667" stroke-linejoin="round" stroke-miterlimit="10" fill="#FF0000"/></g><g clip-path="url(#clip10)"><path d="M511.5 283.5 645.5 383.5 779.5 482.5" stroke="#000000" stroke-width="2.66667" stroke-linecap="round" stroke-linejoin="round" stroke-miterlimit="10" fill="none"/></g><g clip-path="url(#clip11)"><path d="M511.833 276.884 518.5 290.218 505.167 290.218Z" stroke="#000000" stroke-width="0.666667" stroke-linejoin="round" stroke-miterlimit="10"/><path d="M645.667 376.551 652.333 389.884 639 389.884Z" stroke="#000000" stroke-width="0.666667" stroke-linejoin="round" stroke-miterlimit="10"/><path d="M779.5 476.218 786.167 489.551 772.833 489.551Z" stroke="#000000" stroke-width="0.666667" stroke-linejoin="round" stroke-miterlimit="10"/></g><g clip-path="url(#clip12)"><path d="M511.5 228.5 645.5 358.5 779.5 488.5" stroke="#00B0F0" stroke-width="2.66667" stroke-linecap="round" stroke-linejoin="round" stroke-miterlimit="10" fill="none"/></g><g clip-path="url(#clip13)"><path d="M511.833 221.718 518.5 235.051 505.167 235.051Z" stroke="#00B0F0" stroke-width="0.666667" stroke-linejoin="round" stroke-miterlimit="10" fill="#00B0F0"/><path d="M645.667 351.718 652.333 365.051 639 365.051Z" stroke="#00B0F0" stroke-width="0.666667" stroke-linejoin="round" stroke-miterlimit="10" fill="#00B0F0"/><path d="M779.5 481.551 786.167 494.884 772.833 494.884Z" stroke="#00B0F0" stroke-width="0.666667" stroke-linejoin="round" stroke-miterlimit="10" fill="#00B0F0"/></g><g clip-path="url(#clip14)"><text font-family="Arial,Arial_MSFontService,sans-serif" font-weight="400" font-size="13" transform="translate(414.951 505)">3.1</text></g><g clip-path="url(#clip15)"><text font-family="Arial,Arial_MSFontService,sans-serif" font-weight="400" font-size="13" transform="translate(414.951 469)">3.2</text></g><g clip-path="url(#clip16)"><text font-family="Arial,Arial_MSFontService,sans-serif" font-weight="400" font-size="13" transform="translate(414.951 432)">3.3</text></g><g clip-path="url(#clip17)"><text font-family="Arial,Arial_MSFontService,sans-serif" font-weight="400" font-size="13" transform="translate(414.951 396)">3.4</text></g><g clip-path="url(#clip18)"><text font-family="Arial,Arial_MSFontService,sans-serif" font-weight="400" font-size="13" transform="translate(414.951 359)">3.5</text></g><g clip-path="url(#clip19)"><text font-family="Arial,Arial_MSFontService,sans-serif" font-weight="400" font-size="13" transform="translate(414.951 323)">3.6</text></g><g clip-path="url(#clip20)"><text font-family="Arial,Arial_MSFontService,sans-serif" font-weight="400" font-size="13" transform="translate(414.951 286)">3.7</text></g><g clip-path="url(#clip21)"><text font-family="Arial,Arial_MSFontService,sans-serif" font-weight="400" font-size="13" transform="translate(414.951 250)">3.8</text></g><g clip-path="url(#clip22)"><text font-family="Arial,Arial_MSFontService,sans-serif" font-weight="400" font-size="13" transform="translate(414.951 213)">3.9</text></g><g clip-path="url(#clip23)"><text font-family="Arial,Arial_MSFontService,sans-serif" font-weight="400" font-size="13" transform="translate(501.864 521)">low</text></g><g clip-path="url(#clip24)"><text font-family="Arial,Arial_MSFontService,sans-serif" font-weight="400" font-size="13" transform="translate(632.71 521)">med</text></g><g clip-path="url(#clip25)"><text font-family="Arial,Arial_MSFontService,sans-serif" font-weight="400" font-size="13" transform="translate(766.889 521)">high</text></g><g clip-path="url(#clip26)"><text font-family="Arial,Arial_MSFontService,sans-serif" font-weight="700" font-size="16" transform="matrix(6.12323e-17 -1 1 6.12323e-17 386.219 432)">Work Engagement</text></g><g clip-path="url(#clip27)"><text font-family="Arial,Arial_MSFontService,sans-serif" font-weight="700" font-size="16" transform="translate(563.083 547)">Hindrance</text></g><g clip-path="url(#clip28)"><text font-family="Arial,Arial_MSFontService,sans-serif" font-weight="700" font-size="16" transform="translate(644.85 547)">Stressor</text></g><g clip-path="url(#clip29)"><text font-family="Arial,Arial_MSFontService,sans-serif" font-weight="700" font-size="19" transform="translate(501.832 192)">moderation effect of Neuroticism</text></g><g clip-path="url(#clip30)"><rect x="853.5" y="334.5" width="73" height="101" stroke="#000000" stroke-width="0.333333" stroke-linejoin="round" stroke-miterlimit="10" fill="#FFFFFF"/></g><g clip-path="url(#clip31)"><text font-family="Arial,Arial_MSFontService,sans-serif" font-weight="400" transform="translate(892.852 351)">N</text></g><g clip-path="url(#clip32)"><path d="M864.5 372.5 890.5 372.5" stroke="#FF0000" stroke-width="2.66667" stroke-linecap="round" stroke-linejoin="round" stroke-miterlimit="10" fill="none" fill-rule="evenodd"/></g><g clip-path="url(#clip33)"><path d="M877.333 368.833 880.667 375.5 874 375.5Z" stroke="#FF0000" stroke-width="0.666667" stroke-linejoin="round" stroke-miterlimit="10" fill="#FF0000"/></g><g clip-path="url(#clip34)"><text font-family="Arial,Arial_MSFontService,sans-serif" font-weight="400" transform="translate(892.852 376)">high</text></g><g clip-path="url(#clip35)"><path d="M864.5 397.5 890.5 397.5" stroke="#000000" stroke-width="2.66667" stroke-linecap="round" stroke-linejoin="round" stroke-miterlimit="10" fill="none" fill-rule="evenodd"/></g><g clip-path="url(#clip36)"><path d="M877.333 394.167 880.667 400.833 874 400.833Z" stroke="#000000" stroke-width="0.666667" stroke-linejoin="round" stroke-miterlimit="10"/></g><g clip-path="url(#clip37)"><text font-family="Arial,Arial_MSFontService,sans-serif" font-weight="400" transform="translate(892.852 401)">med</text></g><g clip-path="url(#clip38)"><path d="M864.5 423.5 890.5 423.5" stroke="#00B0F0" stroke-width="2.66667" stroke-linecap="round" stroke-linejoin="round" stroke-miterlimit="10" fill="none" fill-rule="evenodd"/></g><g clip-path="url(#clip39)"><path d="M877.333 419.667 880.667 426.333 874 426.333Z" stroke="#00B0F0" stroke-width="0.666667" stroke-linejoin="round" stroke-miterlimit="10" fill="#00B0F0"/></g><g clip-path="url(#clip40)"><text font-family="Arial,Arial_MSFontService,sans-serif" font-weight="400" transform="translate(892.852 427)">low</text></g><rect x="352.5" y="159.5" width="576" height="402" stroke="#8497B0" stroke-width="1.33333" stroke-miterlimit="8" fill="none"/></g></svg>