<svg width="456" height="304" xmlns="http://www.w3.org/2000/svg" xmlns:xlink="http://www.w3.org/1999/xlink" overflow="hidden"><defs><clipPath id="clip0"><path d="M412 208 868 208 868 512 412 512Z" fill-rule="evenodd" clip-rule="evenodd"/></clipPath><clipPath id="clip1"><path d="M413 209 867 209 867 511 413 511Z" fill-rule="evenodd" clip-rule="evenodd"/></clipPath><clipPath id="clip2"><path d="M451 223 844 223 844 447 451 447Z" fill-rule="evenodd" clip-rule="evenodd"/></clipPath><clipPath id="clip3"><path d="M413 209 867 209 867 511 413 511Z" fill-rule="evenodd" clip-rule="evenodd"/></clipPath><clipPath id="clip4"><path d="M451 223 844 223 844 447 451 447Z" fill-rule="evenodd" clip-rule="evenodd"/></clipPath><clipPath id="clip5"><path d="M451 223 844 223 844 447 451 447Z" fill-rule="evenodd" clip-rule="evenodd"/></clipPath><clipPath id="clip6"><path d="M413 209 867 209 867 511 413 511Z" fill-rule="evenodd" clip-rule="evenodd"/></clipPath><clipPath id="clip7"><path d="M413 209 867 209 867 511 413 511Z" fill-rule="evenodd" clip-rule="evenodd"/></clipPath><clipPath id="clip8"><path d="M451 223 844 223 844 447 451 447Z" fill-rule="evenodd" clip-rule="evenodd"/></clipPath><clipPath id="clip9"><path d="M413 209 867 209 867 511 413 511Z" fill-rule="evenodd" clip-rule="evenodd"/></clipPath><clipPath id="clip10"><path d="M413 209 867 209 867 511 413 511Z" fill-rule="evenodd" clip-rule="evenodd"/></clipPath><clipPath id="clip11"><path d="M413 209 867 209 867 511 413 511Z" fill-rule="evenodd" clip-rule="evenodd"/></clipPath><clipPath id="clip12"><path d="M413 209 867 209 867 511 413 511Z" fill-rule="evenodd" clip-rule="evenodd"/></clipPath><clipPath id="clip13"><path d="M413 209 867 209 867 511 413 511Z" fill-rule="evenodd" clip-rule="evenodd"/></clipPath><clipPath id="clip14"><path d="M413 209 867 209 867 511 413 511Z" fill-rule="evenodd" clip-rule="evenodd"/></clipPath><clipPath id="clip15"><path d="M413 209 867 209 867 511 413 511Z" fill-rule="evenodd" clip-rule="evenodd"/></clipPath><clipPath id="clip16"><path d="M413 209 867 209 867 511 413 511Z" fill-rule="evenodd" clip-rule="evenodd"/></clipPath><clipPath id="clip17"><path d="M413 209 867 209 867 511 413 511Z" fill-rule="evenodd" clip-rule="evenodd"/></clipPath><clipPath id="clip18"><path d="M413 209 867 209 867 511 413 511Z" fill-rule="evenodd" clip-rule="evenodd"/></clipPath><clipPath id="clip19"><path d="M413 209 867 209 867 511 413 511Z" fill-rule="evenodd" clip-rule="evenodd"/></clipPath><clipPath id="clip20"><path d="M413 209 867 209 867 511 413 511Z" fill-rule="evenodd" clip-rule="evenodd"/></clipPath><clipPath id="clip21"><path d="M413 209 867 209 867 511 413 511Z" fill-rule="evenodd" clip-rule="evenodd"/></clipPath><clipPath id="clip22"><path d="M413 209 867 209 867 511 413 511Z" fill-rule="evenodd" clip-rule="evenodd"/></clipPath><clipPath id="clip23"><path d="M413 209 867 209 867 511 413 511Z" fill-rule="evenodd" clip-rule="evenodd"/></clipPath><clipPath id="clip24"><path d="M413 209 867 209 867 511 413 511Z" fill-rule="evenodd" clip-rule="evenodd"/></clipPath><clipPath id="clip25"><path d="M413 209 867 209 867 511 413 511Z" fill-rule="evenodd" clip-rule="evenodd"/></clipPath><clipPath id="clip26"><path d="M413 209 867 209 867 511 413 511Z" fill-rule="evenodd" clip-rule="evenodd"/></clipPath><clipPath id="clip27"><path d="M413 209 867 209 867 511 413 511Z" fill-rule="evenodd" clip-rule="evenodd"/></clipPath><clipPath id="clip28"><path d="M413 209 867 209 867 511 413 511Z" fill-rule="evenodd" clip-rule="evenodd"/></clipPath><clipPath id="clip29"><path d="M413 209 867 209 867 511 413 511Z" fill-rule="evenodd" clip-rule="evenodd"/></clipPath><clipPath id="clip30"><path d="M413 209 867 209 867 511 413 511Z" fill-rule="evenodd" clip-rule="evenodd"/></clipPath><clipPath id="clip31"><path d="M413 209 867 209 867 511 413 511Z" fill-rule="evenodd" clip-rule="evenodd"/></clipPath></defs><g clip-path="url(#clip0)" transform="translate(-412 -208)"><g clip-path="url(#clip1)"><path d="M451.5 446.5 843.5 446.5M451.5 408.5 843.5 408.5M451.5 371.5 843.5 371.5M451.5 334.5 843.5 334.5M451.5 297.5 843.5 297.5M451.5 260.5 843.5 260.5M451.5 223.5 843.5 223.5" stroke="#000000" stroke-width="0.666667" stroke-linejoin="round" stroke-miterlimit="10" fill="none"/></g><g clip-path="url(#clip2)"><path d="M500 401C544.833 384.988 589.667 368.963 634.5 352.963 679.333 336.963 724.167 320.988 769 305" stroke="#000000" stroke-width="2" stroke-linecap="round" stroke-linejoin="round" stroke-miterlimit="10" fill="none"/></g><g clip-path="url(#clip3)"><path d="M500 396.5 504 404.5 496 404.5Z" stroke="#000000" stroke-width="0.666667" stroke-linejoin="round" stroke-miterlimit="10"/><path d="M634.5 348.5 638.5 356.5 630.5 356.5Z" stroke="#000000" stroke-width="0.666667" stroke-linejoin="round" stroke-miterlimit="10"/><path d="M768.833 300.5 772.833 308.5 764.833 308.5Z" stroke="#000000" stroke-width="0.666667" stroke-linejoin="round" stroke-miterlimit="10"/></g><g clip-path="url(#clip4)"><path d="M500 437C544.667 417.667 589.333 395.239 634 379" stroke="#000000" stroke-width="2" stroke-linecap="round" stroke-linejoin="round" stroke-miterlimit="10" stroke-dasharray="6 8" fill="none"/></g><g clip-path="url(#clip5)"><path d="M634.5 379.258C679.333 363.092 724.167 353.086 769 340" stroke="#000000" stroke-width="2" stroke-linecap="round" stroke-linejoin="round" stroke-miterlimit="10" stroke-dasharray="6 8" fill="none"/></g><g clip-path="url(#clip6)"><path d="M496 433.333 504 433.333 504 441.333 496 441.333Z" stroke="#000000" stroke-width="0.666667" stroke-linejoin="round" stroke-miterlimit="10"/><path d="M630.5 375.5 638.5 375.5 638.5 383.5 630.5 383.5Z" stroke="#000000" stroke-width="0.666667" stroke-linejoin="round" stroke-miterlimit="10"/><path d="M764.833 336 772.833 336 772.833 344 764.833 344Z" stroke="#000000" stroke-width="0.666667" stroke-linejoin="round" stroke-miterlimit="10"/></g><g clip-path="url(#clip7)"><path d="M504 441.333 496 433.333M496 441.333 504 433.333" stroke="#000000" stroke-width="0.666667" stroke-linejoin="round" stroke-miterlimit="10"/><path d="M638.5 383.5 630.5 375.5M630.5 383.5 638.5 375.5" stroke="#000000" stroke-width="0.666667" stroke-linejoin="round" stroke-miterlimit="10"/><path d="M772.833 344 764.833 336M764.833 344 772.833 336" stroke="#000000" stroke-width="0.666667" stroke-linejoin="round" stroke-miterlimit="10"/></g><g clip-path="url(#clip8)"><path d="M500 364C544.833 351.239 589.667 341.551 634.5 325.717 679.333 309.884 724.167 287.906 769 269" stroke="#000000" stroke-width="2" stroke-linecap="round" stroke-linejoin="round" stroke-miterlimit="10" stroke-dasharray="6 8" fill="none"/></g><g clip-path="url(#clip9)"><path d="M496 359.833 504 359.833 504 367.833 496 367.833Z" stroke="#000000" stroke-width="0.666667" stroke-linejoin="round" stroke-miterlimit="10"/><path d="M630.5 321.667 638.5 321.667 638.5 329.667 630.5 329.667Z" stroke="#000000" stroke-width="0.666667" stroke-linejoin="round" stroke-miterlimit="10"/><path d="M764.833 265 772.833 265 772.833 273 764.833 273Z" stroke="#000000" stroke-width="0.666667" stroke-linejoin="round" stroke-miterlimit="10"/></g><g clip-path="url(#clip10)"><text font-family="Calibri,Calibri_MSFontService,sans-serif" font-weight="400" font-size="13" transform="translate(512.025 405)">0.0114</text></g><g clip-path="url(#clip11)"><text font-family="Calibri,Calibri_MSFontService,sans-serif" font-weight="400" font-size="13" transform="translate(646.455 357)">0.0762</text></g><g clip-path="url(#clip12)"><text font-family="Calibri,Calibri_MSFontService,sans-serif" font-weight="400" font-size="13" transform="translate(780.886 309)">0.1409</text></g><g clip-path="url(#clip13)"><text font-family="Calibri,Calibri_MSFontService,sans-serif" font-weight="400" font-size="13" transform="translate(479.401 460)">-</text></g><g clip-path="url(#clip14)"><text font-family="Calibri,Calibri_MSFontService,sans-serif" font-weight="400" font-size="13" transform="translate(483.481 460)">0.0382</text></g><g clip-path="url(#clip15)"><text font-family="Calibri,Calibri_MSFontService,sans-serif" font-weight="400" font-size="13" transform="translate(615.872 402)">0.0399</text></g><g clip-path="url(#clip16)"><text font-family="Calibri,Calibri_MSFontService,sans-serif" font-weight="400" font-size="13" transform="translate(753.683 363)">0.093</text></g><g clip-path="url(#clip17)"><text font-family="Calibri,Calibri_MSFontService,sans-serif" font-weight="400" font-size="13" transform="translate(484.821 351)">0.060</text></g><g clip-path="url(#clip18)"><text font-family="Calibri,Calibri_MSFontService,sans-serif" font-weight="400" font-size="13" transform="translate(615.872 312)">0.1125</text></g><g clip-path="url(#clip19)"><text font-family="Calibri,Calibri_MSFontService,sans-serif" font-weight="400" font-size="13" transform="translate(750.303 256)">0.1888</text></g><g clip-path="url(#clip20)"><text font-family="Calibri,Calibri_MSFontService,sans-serif" font-weight="400" font-size="13" transform="translate(440.717 468)">-0.7</text></g><g clip-path="url(#clip21)"><text font-family="Calibri,Calibri_MSFontService,sans-serif" font-weight="400" font-size="13" transform="translate(493.075 468)">-0.5</text></g><g clip-path="url(#clip22)"><text font-family="Calibri,Calibri_MSFontService,sans-serif" font-weight="400" font-size="13" transform="translate(545.434 468)">-0.3</text></g><g clip-path="url(#clip23)"><text font-family="Calibri,Calibri_MSFontService,sans-serif" font-weight="400" font-size="13" transform="translate(597.793 468)">-0.1</text></g><g clip-path="url(#clip24)"><text font-family="Calibri,Calibri_MSFontService,sans-serif" font-weight="400" font-size="13" transform="translate(652.191 468)">0.1</text></g><g clip-path="url(#clip25)"><text font-family="Calibri,Calibri_MSFontService,sans-serif" font-weight="400" font-size="13" transform="translate(704.55 468)">0.3</text></g><g clip-path="url(#clip26)"><text font-family="Calibri,Calibri_MSFontService,sans-serif" font-weight="400" font-size="13" transform="translate(756.909 468)">0.5</text></g><g clip-path="url(#clip27)"><text font-family="Calibri,Calibri_MSFontService,sans-serif" font-weight="400" font-size="13" transform="translate(809.267 468)">0.7</text></g><g clip-path="url(#clip28)"><text font-family="Calibri,Calibri_MSFontService,sans-serif" font-weight="700" font-size="16" transform="matrix(6.12323e-17 -1 1 6.12323e-17 444.667 390)">Mediation Effect</text></g><g clip-path="url(#clip29)"><text font-family="Calibri,Calibri_MSFontService,sans-serif" font-weight="700" font-size="16" transform="translate(586.752 490)">Conscientiousness</text></g><g clip-path="url(#clip30)"><rect x="694.5" y="238.5" width="105" height="203" stroke="#FF0000" stroke-width="2.66667" stroke-miterlimit="8" stroke-dasharray="2.66667 2.66667" fill="none"/></g><g clip-path="url(#clip31)"><text font-family="Malgun Gothic,Malgun Gothic_MSFontService,sans-serif" font-weight="400" font-size="15" transform="translate(716.131 426)">유의구간</text></g><path d="M705.167 434.167 787.033 434.167 787.033 434.833 705.167 434.833ZM706.5 438.5 698.5 434.5 706.5 430.5ZM785.7 430.5 793.7 434.5 785.7 438.5Z"/></g></svg>