<svg width="456" height="304" xmlns="http://www.w3.org/2000/svg" xmlns:xlink="http://www.w3.org/1999/xlink" overflow="hidden"><defs><clipPath id="clip0"><path d="M412 208 868 208 868 512 412 512Z" fill-rule="evenodd" clip-rule="evenodd"/></clipPath><clipPath id="clip1"><path d="M413 209 867 209 867 511 413 511Z" fill-rule="evenodd" clip-rule="evenodd"/></clipPath><clipPath id="clip2"><path d="M454 223 844 223 844 443 454 443Z" fill-rule="evenodd" clip-rule="evenodd"/></clipPath><clipPath id="clip3"><path d="M413 209 867 209 867 511 413 511Z" fill-rule="evenodd" clip-rule="evenodd"/></clipPath><clipPath id="clip4"><path d="M454 223 844 223 844 443 454 443Z" fill-rule="evenodd" clip-rule="evenodd"/></clipPath><clipPath id="clip5"><path d="M413 209 867 209 867 511 413 511Z" fill-rule="evenodd" clip-rule="evenodd"/></clipPath><clipPath id="clip6"><path d="M413 209 867 209 867 511 413 511Z" fill-rule="evenodd" clip-rule="evenodd"/></clipPath><clipPath id="clip7"><path d="M454 223 844 223 844 443 454 443Z" fill-rule="evenodd" clip-rule="evenodd"/></clipPath><clipPath id="clip8"><path d="M413 209 867 209 867 511 413 511Z" fill-rule="evenodd" clip-rule="evenodd"/></clipPath><clipPath id="clip9"><path d="M413 209 867 209 867 511 413 511Z" fill-rule="evenodd" clip-rule="evenodd"/></clipPath><clipPath id="clip10"><path d="M413 209 867 209 867 511 413 511Z" fill-rule="evenodd" clip-rule="evenodd"/></clipPath><clipPath id="clip11"><path d="M413 209 867 209 867 511 413 511Z" fill-rule="evenodd" clip-rule="evenodd"/></clipPath><clipPath id="clip12"><path d="M413 209 867 209 867 511 413 511Z" fill-rule="evenodd" clip-rule="evenodd"/></clipPath><clipPath id="clip13"><path d="M413 209 867 209 867 511 413 511Z" fill-rule="evenodd" clip-rule="evenodd"/></clipPath><clipPath id="clip14"><path d="M413 209 867 209 867 511 413 511Z" fill-rule="evenodd" clip-rule="evenodd"/></clipPath><clipPath id="clip15"><path d="M413 209 867 209 867 511 413 511Z" fill-rule="evenodd" clip-rule="evenodd"/></clipPath><clipPath id="clip16"><path d="M413 209 867 209 867 511 413 511Z" fill-rule="evenodd" clip-rule="evenodd"/></clipPath><clipPath id="clip17"><path d="M413 209 867 209 867 511 413 511Z" fill-rule="evenodd" clip-rule="evenodd"/></clipPath><clipPath id="clip18"><path d="M413 209 867 209 867 511 413 511Z" fill-rule="evenodd" clip-rule="evenodd"/></clipPath><clipPath id="clip19"><path d="M413 209 867 209 867 511 413 511Z" fill-rule="evenodd" clip-rule="evenodd"/></clipPath><clipPath id="clip20"><path d="M413 209 867 209 867 511 413 511Z" fill-rule="evenodd" clip-rule="evenodd"/></clipPath><clipPath id="clip21"><path d="M413 209 867 209 867 511 413 511Z" fill-rule="evenodd" clip-rule="evenodd"/></clipPath><clipPath id="clip22"><path d="M413 209 867 209 867 511 413 511Z" fill-rule="evenodd" clip-rule="evenodd"/></clipPath><clipPath id="clip23"><path d="M413 209 867 209 867 511 413 511Z" fill-rule="evenodd" clip-rule="evenodd"/></clipPath><clipPath id="clip24"><path d="M413 209 867 209 867 511 413 511Z" fill-rule="evenodd" clip-rule="evenodd"/></clipPath><clipPath id="clip25"><path d="M413 209 867 209 867 511 413 511Z" fill-rule="evenodd" clip-rule="evenodd"/></clipPath><clipPath id="clip26"><path d="M413 209 867 209 867 511 413 511Z" fill-rule="evenodd" clip-rule="evenodd"/></clipPath><clipPath id="clip27"><path d="M413 209 867 209 867 511 413 511Z" fill-rule="evenodd" clip-rule="evenodd"/></clipPath><clipPath id="clip28"><path d="M413 209 867 209 867 511 413 511Z" fill-rule="evenodd" clip-rule="evenodd"/></clipPath><clipPath id="clip29"><path d="M413 209 867 209 867 511 413 511Z" fill-rule="evenodd" clip-rule="evenodd"/></clipPath><clipPath id="clip30"><path d="M413 209 867 209 867 511 413 511Z" fill-rule="evenodd" clip-rule="evenodd"/></clipPath><clipPath id="clip31"><path d="M413 209 867 209 867 511 413 511Z" fill-rule="evenodd" clip-rule="evenodd"/></clipPath><clipPath id="clip32"><path d="M413 209 867 209 867 511 413 511Z" fill-rule="evenodd" clip-rule="evenodd"/></clipPath><clipPath id="clip33"><path d="M413 209 867 209 867 511 413 511Z" fill-rule="evenodd" clip-rule="evenodd"/></clipPath><clipPath id="clip34"><path d="M413 209 867 209 867 511 413 511Z" fill-rule="evenodd" clip-rule="evenodd"/></clipPath><clipPath id="clip35"><path d="M413 209 867 209 867 511 413 511Z" fill-rule="evenodd" clip-rule="evenodd"/></clipPath><clipPath id="clip36"><path d="M413 209 867 209 867 511 413 511Z" fill-rule="evenodd" clip-rule="evenodd"/></clipPath></defs><g clip-path="url(#clip0)" transform="translate(-412 -208)"><g clip-path="url(#clip1)"><path d="M454.5 442.5 843.5 442.5M454.5 398.5 843.5 398.5M454.5 354.5 843.5 354.5M454.5 311.5 843.5 311.5M454.5 267.5 843.5 267.5M454.5 223.5 843.5 223.5" stroke="#000000" stroke-width="0.666667" stroke-linejoin="round" stroke-miterlimit="10" fill="none"/></g><g clip-path="url(#clip2)"><path d="M484 334C539.167 325.5 594.333 317 649.5 308.5 704.667 300 759.833 291.5 815 283" stroke="#000000" stroke-width="2" stroke-linecap="round" stroke-linejoin="round" stroke-miterlimit="10" fill="none"/></g><g clip-path="url(#clip3)"><path d="M483.667 329.833 487.667 337.833 479.667 337.833Z" stroke="#000000" stroke-width="0.666667" stroke-linejoin="round" stroke-miterlimit="10"/><path d="M649.333 304.167 653.333 312.167 645.333 312.167Z" stroke="#000000" stroke-width="0.666667" stroke-linejoin="round" stroke-miterlimit="10"/><path d="M815 278.5 819 286.5 811 286.5Z" stroke="#000000" stroke-width="0.666667" stroke-linejoin="round" stroke-miterlimit="10"/></g><g clip-path="url(#clip4)"><path d="M484 386C539.167 372.846 594.333 358.872 649.5 346.539 704.667 334.206 759.833 323.513 815 312" stroke="#000000" stroke-width="2" stroke-linecap="round" stroke-linejoin="round" stroke-miterlimit="10" stroke-dasharray="6 8" fill="none"/></g><g clip-path="url(#clip5)"><path d="M479.667 381.5 487.667 381.5 487.667 389.5 479.667 389.5Z" stroke="#000000" stroke-width="0.666667" stroke-linejoin="round" stroke-miterlimit="10"/><path d="M645.333 342.167 653.333 342.167 653.333 350.167 645.333 350.167Z" stroke="#000000" stroke-width="0.666667" stroke-linejoin="round" stroke-miterlimit="10"/><path d="M811 307.833 819 307.833 819 315.833 811 315.833Z" stroke="#000000" stroke-width="0.666667" stroke-linejoin="round" stroke-miterlimit="10"/></g><g clip-path="url(#clip6)"><path d="M487.667 389.5 479.667 381.5M479.667 389.5 487.667 381.5" stroke="#000000" stroke-width="0.666667" stroke-linejoin="round" stroke-miterlimit="10"/><path d="M653.333 350.167 645.333 342.167M645.333 350.167 653.333 342.167" stroke="#000000" stroke-width="0.666667" stroke-linejoin="round" stroke-miterlimit="10"/><path d="M819 315.833 811 307.833M811 315.833 819 307.833" stroke="#000000" stroke-width="0.666667" stroke-linejoin="round" stroke-miterlimit="10"/></g><g clip-path="url(#clip7)"><path d="M484 282C539.167 277.987 594.333 274.794 649.5 269.961 704.667 265.127 759.833 258.654 815 253" stroke="#000000" stroke-width="2" stroke-linecap="round" stroke-linejoin="round" stroke-miterlimit="10" stroke-dasharray="6 8" fill="none"/></g><g clip-path="url(#clip8)"><path d="M479.667 278 487.667 278 487.667 286 479.667 286Z" stroke="#000000" stroke-width="0.666667" stroke-linejoin="round" stroke-miterlimit="10"/><path d="M645.333 266 653.333 266 653.333 274 645.333 274Z" stroke="#000000" stroke-width="0.666667" stroke-linejoin="round" stroke-miterlimit="10"/><path d="M811 249.167 819 249.167 819 257.167 811 257.167Z" stroke="#000000" stroke-width="0.666667" stroke-linejoin="round" stroke-miterlimit="10"/></g><g clip-path="url(#clip9)"><text font-family="Calibri,Calibri_MSFontService,sans-serif" font-weight="400" font-size="13" transform="translate(463.034 321)">-</text></g><g clip-path="url(#clip10)"><text font-family="Calibri,Calibri_MSFontService,sans-serif" font-weight="400" font-size="13" transform="translate(467.114 321)">0.1258</text></g><g clip-path="url(#clip11)"><text font-family="Calibri,Calibri_MSFontService,sans-serif" font-weight="400" font-size="13" transform="translate(628.682 295)">-</text></g><g clip-path="url(#clip12)"><text font-family="Calibri,Calibri_MSFontService,sans-serif" font-weight="400" font-size="13" transform="translate(632.762 295)">0.0965</text></g><g clip-path="url(#clip13)"><text font-family="Calibri,Calibri_MSFontService,sans-serif" font-weight="400" font-size="13" transform="translate(794.329 269)">-</text></g><g clip-path="url(#clip14)"><text font-family="Calibri,Calibri_MSFontService,sans-serif" font-weight="400" font-size="13" transform="translate(798.409 269)">0.0672</text></g><g clip-path="url(#clip15)"><text font-family="Calibri,Calibri_MSFontService,sans-serif" font-weight="400" font-size="13" transform="translate(463.034 409)">-</text></g><g clip-path="url(#clip16)"><text font-family="Calibri,Calibri_MSFontService,sans-serif" font-weight="400" font-size="13" transform="translate(467.114 409)">0.1849</text></g><g clip-path="url(#clip17)"><text font-family="Calibri,Calibri_MSFontService,sans-serif" font-weight="400" font-size="13" transform="translate(635.442 369)">-</text></g><g clip-path="url(#clip18)"><text font-family="Calibri,Calibri_MSFontService,sans-serif" font-weight="400" font-size="13" transform="translate(639.522 369)">0.14</text></g><g clip-path="url(#clip19)"><text font-family="Calibri,Calibri_MSFontService,sans-serif" font-weight="400" font-size="13" transform="translate(794.329 335)">-</text></g><g clip-path="url(#clip20)"><text font-family="Calibri,Calibri_MSFontService,sans-serif" font-weight="400" font-size="13" transform="translate(798.409 335)">0.1007</text></g><g clip-path="url(#clip21)"><text font-family="Calibri,Calibri_MSFontService,sans-serif" font-weight="400" font-size="13" transform="translate(463.034 269)">-</text></g><g clip-path="url(#clip22)"><text font-family="Calibri,Calibri_MSFontService,sans-serif" font-weight="400" font-size="13" transform="translate(467.114 269)">0.0667</text></g><g clip-path="url(#clip23)"><text font-family="Calibri,Calibri_MSFontService,sans-serif" font-weight="400" font-size="13" transform="translate(632.062 257)">-</text></g><g clip-path="url(#clip24)"><text font-family="Calibri,Calibri_MSFontService,sans-serif" font-weight="400" font-size="13" transform="translate(636.142 257)">0.053</text></g><g clip-path="url(#clip25)"><text font-family="Calibri,Calibri_MSFontService,sans-serif" font-weight="400" font-size="13" transform="translate(794.329 240)">-</text></g><g clip-path="url(#clip26)"><text font-family="Calibri,Calibri_MSFontService,sans-serif" font-weight="400" font-size="13" transform="translate(798.409 240)">0.0337</text></g><g clip-path="url(#clip27)"><text font-family="Calibri,Calibri_MSFontService,sans-serif" font-weight="400" font-size="13" transform="translate(444.237 464)">-0.7</text></g><g clip-path="url(#clip28)"><text font-family="Calibri,Calibri_MSFontService,sans-serif" font-weight="400" font-size="13" transform="translate(499.832 464)">-0.5</text></g><g clip-path="url(#clip29)"><text font-family="Calibri,Calibri_MSFontService,sans-serif" font-weight="400" font-size="13" transform="translate(555.428 464)">-0.3</text></g><g clip-path="url(#clip30)"><text font-family="Calibri,Calibri_MSFontService,sans-serif" font-weight="400" font-size="13" transform="translate(611.024 464)">-0.1</text></g><g clip-path="url(#clip31)"><text font-family="Calibri,Calibri_MSFontService,sans-serif" font-weight="400" font-size="13" transform="translate(668.66 464)">0.1</text></g><g clip-path="url(#clip32)"><text font-family="Calibri,Calibri_MSFontService,sans-serif" font-weight="400" font-size="13" transform="translate(724.255 464)">0.3</text></g><g clip-path="url(#clip33)"><text font-family="Calibri,Calibri_MSFontService,sans-serif" font-weight="400" font-size="13" transform="translate(779.851 464)">0.5</text></g><g clip-path="url(#clip34)"><text font-family="Calibri,Calibri_MSFontService,sans-serif" font-weight="400" font-size="13" transform="translate(835.447 464)">0.7</text></g><g clip-path="url(#clip35)"><text font-family="Malgun Gothic,Malgun Gothic_MSFontService,sans-serif" font-weight="700" font-size="13" transform="matrix(6.12323e-17 -1 1 6.12323e-17 446.667 360)">매개효과</text></g><g clip-path="url(#clip36)"><text font-family="Malgun Gothic,Malgun Gothic_MSFontService,sans-serif" font-weight="700" font-size="13" transform="translate(629.305 488)">신경증</text></g><rect x="479.5" y="245.5" width="341" height="192" stroke="#FF0000" stroke-width="2.66667" stroke-miterlimit="8" stroke-dasharray="2.66667 2.66667" fill="none"/><path d="M492.166 430.167 802.181 430.167 802.181 430.833 492.166 430.833ZM493.5 434.5 485.5 430.5 493.5 426.5ZM800.848 426.5 808.848 430.5 800.848 434.5Z"/><text font-family="Malgun Gothic,Malgun Gothic_MSFontService,sans-serif" font-weight="400" font-size="15" transform="translate(611.667 426)">유의구간</text></g></svg>