<svg width="456" height="304" xmlns="http://www.w3.org/2000/svg" xmlns:xlink="http://www.w3.org/1999/xlink" overflow="hidden"><defs><clipPath id="clip0"><path d="M252 208 708 208 708 512 252 512Z" fill-rule="evenodd" clip-rule="evenodd"/></clipPath><clipPath id="clip1"><path d="M253 209 707 209 707 511 253 511Z" fill-rule="evenodd" clip-rule="evenodd"/></clipPath><clipPath id="clip2"><path d="M287 223 684 223 684 451 287 451Z" fill-rule="evenodd" clip-rule="evenodd"/></clipPath><clipPath id="clip3"><path d="M253 209 707 209 707 511 253 511Z" fill-rule="evenodd" clip-rule="evenodd"/></clipPath><clipPath id="clip4"><path d="M287 223 684 223 684 451 287 451Z" fill-rule="evenodd" clip-rule="evenodd"/></clipPath><clipPath id="clip5"><path d="M253 209 707 209 707 511 253 511Z" fill-rule="evenodd" clip-rule="evenodd"/></clipPath><clipPath id="clip6"><path d="M253 209 707 209 707 511 253 511Z" fill-rule="evenodd" clip-rule="evenodd"/></clipPath><clipPath id="clip7"><path d="M287 223 684 223 684 451 287 451Z" fill-rule="evenodd" clip-rule="evenodd"/></clipPath><clipPath id="clip8"><path d="M253 209 707 209 707 511 253 511Z" fill-rule="evenodd" clip-rule="evenodd"/></clipPath><clipPath id="clip9"><path d="M253 209 707 209 707 511 253 511Z" fill-rule="evenodd" clip-rule="evenodd"/></clipPath><clipPath id="clip10"><path d="M253 209 707 209 707 511 253 511Z" fill-rule="evenodd" clip-rule="evenodd"/></clipPath><clipPath id="clip11"><path d="M253 209 707 209 707 511 253 511Z" fill-rule="evenodd" clip-rule="evenodd"/></clipPath><clipPath id="clip12"><path d="M253 209 707 209 707 511 253 511Z" fill-rule="evenodd" clip-rule="evenodd"/></clipPath><clipPath id="clip13"><path d="M253 209 707 209 707 511 253 511Z" fill-rule="evenodd" clip-rule="evenodd"/></clipPath><clipPath id="clip14"><path d="M253 209 707 209 707 511 253 511Z" fill-rule="evenodd" clip-rule="evenodd"/></clipPath><clipPath id="clip15"><path d="M253 209 707 209 707 511 253 511Z" fill-rule="evenodd" clip-rule="evenodd"/></clipPath><clipPath id="clip16"><path d="M253 209 707 209 707 511 253 511Z" fill-rule="evenodd" clip-rule="evenodd"/></clipPath><clipPath id="clip17"><path d="M253 209 707 209 707 511 253 511Z" fill-rule="evenodd" clip-rule="evenodd"/></clipPath><clipPath id="clip18"><path d="M253 209 707 209 707 511 253 511Z" fill-rule="evenodd" clip-rule="evenodd"/></clipPath><clipPath id="clip19"><path d="M253 209 707 209 707 511 253 511Z" fill-rule="evenodd" clip-rule="evenodd"/></clipPath><clipPath id="clip20"><path d="M253 209 707 209 707 511 253 511Z" fill-rule="evenodd" clip-rule="evenodd"/></clipPath><clipPath id="clip21"><path d="M253 209 707 209 707 511 253 511Z" fill-rule="evenodd" clip-rule="evenodd"/></clipPath><clipPath id="clip22"><path d="M253 209 707 209 707 511 253 511Z" fill-rule="evenodd" clip-rule="evenodd"/></clipPath><clipPath id="clip23"><path d="M253 209 707 209 707 511 253 511Z" fill-rule="evenodd" clip-rule="evenodd"/></clipPath><clipPath id="clip24"><path d="M253 209 707 209 707 511 253 511Z" fill-rule="evenodd" clip-rule="evenodd"/></clipPath><clipPath id="clip25"><path d="M253 209 707 209 707 511 253 511Z" fill-rule="evenodd" clip-rule="evenodd"/></clipPath><clipPath id="clip26"><path d="M253 209 707 209 707 511 253 511Z" fill-rule="evenodd" clip-rule="evenodd"/></clipPath><clipPath id="clip27"><path d="M253 209 707 209 707 511 253 511Z" fill-rule="evenodd" clip-rule="evenodd"/></clipPath><clipPath id="clip28"><path d="M253 209 707 209 707 511 253 511Z" fill-rule="evenodd" clip-rule="evenodd"/></clipPath><clipPath id="clip29"><path d="M253 209 707 209 707 511 253 511Z" fill-rule="evenodd" clip-rule="evenodd"/></clipPath><clipPath id="clip30"><path d="M253 209 707 209 707 511 253 511Z" fill-rule="evenodd" clip-rule="evenodd"/></clipPath><clipPath id="clip31"><path d="M253 209 707 209 707 511 253 511Z" fill-rule="evenodd" clip-rule="evenodd"/></clipPath><clipPath id="clip32"><path d="M253 209 707 209 707 511 253 511Z" fill-rule="evenodd" clip-rule="evenodd"/></clipPath><clipPath id="clip33"><path d="M253 209 707 209 707 511 253 511Z" fill-rule="evenodd" clip-rule="evenodd"/></clipPath><clipPath id="clip34"><path d="M253 209 707 209 707 511 253 511Z" fill-rule="evenodd" clip-rule="evenodd"/></clipPath><clipPath id="clip35"><path d="M253 209 707 209 707 511 253 511Z" fill-rule="evenodd" clip-rule="evenodd"/></clipPath><clipPath id="clip36"><path d="M253 209 707 209 707 511 253 511Z" fill-rule="evenodd" clip-rule="evenodd"/></clipPath></defs><g clip-path="url(#clip0)" transform="translate(-252 -208)"><g clip-path="url(#clip1)"><path d="M287.5 450.5 683.5 450.5M287.5 404.5 683.5 404.5M287.5 359.5 683.5 359.5M287.5 314.5 683.5 314.5M287.5 268.5 683.5 268.5M287.5 223.5 683.5 223.5" stroke="#000000" stroke-width="0.666667" stroke-linejoin="round" stroke-miterlimit="10" fill="none"/></g><g clip-path="url(#clip2)"><path d="M311 339C374.061 328.948 445.017 317.678 500.183 308.845 555.35 300.011 594.728 293.615 642 286" stroke="#000000" stroke-width="2" stroke-linecap="round" stroke-linejoin="round" stroke-miterlimit="10" fill="none"/></g><g clip-path="url(#clip3)"><path d="M311.333 334.833 315.333 342.833 307.333 342.833Z" stroke="#000000" stroke-width="0.666667" stroke-linejoin="round" stroke-miterlimit="10"/><path d="M500.5 304.833 504.5 312.833 496.5 312.833Z" stroke="#000000" stroke-width="0.666667" stroke-linejoin="round" stroke-miterlimit="10"/><path d="M642.167 282.167 646.167 290.167 638.167 290.167Z" stroke="#000000" stroke-width="0.666667" stroke-linejoin="round" stroke-miterlimit="10"/></g><g clip-path="url(#clip4)"><path d="M311 392C374.061 376.94 445.017 359.319 500.183 346.819 555.35 334.319 594.728 326.94 642 317" stroke="#000000" stroke-width="2" stroke-linecap="round" stroke-linejoin="round" stroke-miterlimit="10" stroke-dasharray="6 8" fill="none"/></g><g clip-path="url(#clip5)"><path d="M307.333 388.333 315.333 388.333 315.333 396.333 307.333 396.333Z" stroke="#000000" stroke-width="0.666667" stroke-linejoin="round" stroke-miterlimit="10"/><path d="M496.5 343 504.5 343 504.5 351 496.5 351Z" stroke="#000000" stroke-width="0.666667" stroke-linejoin="round" stroke-miterlimit="10"/><path d="M638.167 313 646.167 313 646.167 321 638.167 321Z" stroke="#000000" stroke-width="0.666667" stroke-linejoin="round" stroke-miterlimit="10"/></g><g clip-path="url(#clip6)"><path d="M315.333 396.333 307.333 388.333M307.333 396.333 315.333 388.333" stroke="#000000" stroke-width="0.666667" stroke-linejoin="round" stroke-miterlimit="10"/><path d="M504.5 351 496.5 343M496.5 351 504.5 343" stroke="#000000" stroke-width="0.666667" stroke-linejoin="round" stroke-miterlimit="10"/><path d="M646.167 321 638.167 313M638.167 321 646.167 313" stroke="#000000" stroke-width="0.666667" stroke-linejoin="round" stroke-miterlimit="10"/></g><g clip-path="url(#clip7)"><path d="M311 285C374.061 280.151 445.017 275.454 500.183 270.455 555.35 265.455 594.728 260.151 642 255" stroke="#000000" stroke-width="2" stroke-linecap="round" stroke-linejoin="round" stroke-miterlimit="10" stroke-dasharray="6 8" fill="none"/></g><g clip-path="url(#clip8)"><path d="M307.333 281.333 315.333 281.333 315.333 289.333 307.333 289.333Z" stroke="#000000" stroke-width="0.666667" stroke-linejoin="round" stroke-miterlimit="10"/><path d="M496.5 266.833 504.5 266.833 504.5 274.833 496.5 274.833Z" stroke="#000000" stroke-width="0.666667" stroke-linejoin="round" stroke-miterlimit="10"/><path d="M638.167 251.333 646.167 251.333 646.167 259.333 638.167 259.333Z" stroke="#000000" stroke-width="0.666667" stroke-linejoin="round" stroke-miterlimit="10"/></g><g clip-path="url(#clip9)"><text font-family="Calibri,Calibri_MSFontService,sans-serif" font-weight="400" font-size="13" transform="translate(294.137 326)">-</text></g><g clip-path="url(#clip10)"><text font-family="Calibri,Calibri_MSFontService,sans-serif" font-weight="400" font-size="13" transform="translate(298.217 326)">0.127</text></g><g clip-path="url(#clip11)"><text font-family="Calibri,Calibri_MSFontService,sans-serif" font-weight="400" font-size="13" transform="translate(483.227 296)">-</text></g><g clip-path="url(#clip12)"><text font-family="Calibri,Calibri_MSFontService,sans-serif" font-weight="400" font-size="13" transform="translate(487.307 296)">0.094</text></g><g clip-path="url(#clip13)"><text font-family="Calibri,Calibri_MSFontService,sans-serif" font-weight="400" font-size="13" transform="translate(624.973 273)">-</text></g><g clip-path="url(#clip14)"><text font-family="Calibri,Calibri_MSFontService,sans-serif" font-weight="400" font-size="13" transform="translate(629.053 273)">0.069</text></g><g clip-path="url(#clip15)"><text font-family="Calibri,Calibri_MSFontService,sans-serif" font-weight="400" font-size="13" transform="translate(294.137 415)">-</text></g><g clip-path="url(#clip16)"><text font-family="Calibri,Calibri_MSFontService,sans-serif" font-weight="400" font-size="13" transform="translate(298.217 415)">0.186</text></g><g clip-path="url(#clip17)"><text font-family="Calibri,Calibri_MSFontService,sans-serif" font-weight="400" font-size="13" transform="translate(483.227 370)">-</text></g><g clip-path="url(#clip18)"><text font-family="Calibri,Calibri_MSFontService,sans-serif" font-weight="400" font-size="13" transform="translate(487.307 370)">0.136</text></g><g clip-path="url(#clip19)"><text font-family="Calibri,Calibri_MSFontService,sans-serif" font-weight="400" font-size="13" transform="translate(624.973 340)">-</text></g><g clip-path="url(#clip20)"><text font-family="Calibri,Calibri_MSFontService,sans-serif" font-weight="400" font-size="13" transform="translate(629.053 340)">0.103</text></g><g clip-path="url(#clip21)"><text font-family="Calibri,Calibri_MSFontService,sans-serif" font-weight="400" font-size="13" transform="translate(294.137 272)">-</text></g><g clip-path="url(#clip22)"><text font-family="Calibri,Calibri_MSFontService,sans-serif" font-weight="400" font-size="13" transform="translate(298.217 272)">0.068</text></g><g clip-path="url(#clip23)"><text font-family="Calibri,Calibri_MSFontService,sans-serif" font-weight="400" font-size="13" transform="translate(483.227 258)">-</text></g><g clip-path="url(#clip24)"><text font-family="Calibri,Calibri_MSFontService,sans-serif" font-weight="400" font-size="13" transform="translate(487.307 258)">0.052</text></g><g clip-path="url(#clip25)"><text font-family="Calibri,Calibri_MSFontService,sans-serif" font-weight="400" font-size="13" transform="translate(624.973 242)">-</text></g><g clip-path="url(#clip26)"><text font-family="Calibri,Calibri_MSFontService,sans-serif" font-weight="400" font-size="13" transform="translate(629.053 242)">0.035</text></g><g clip-path="url(#clip27)"><text font-family="Calibri,Calibri_MSFontService,sans-serif" font-weight="400" font-size="13" transform="translate(276.517 472)">-0.7</text></g><g clip-path="url(#clip28)"><text font-family="Calibri,Calibri_MSFontService,sans-serif" font-weight="400" font-size="13" transform="translate(333.215 472)">-0.5</text></g><g clip-path="url(#clip29)"><text font-family="Calibri,Calibri_MSFontService,sans-serif" font-weight="400" font-size="13" transform="translate(389.914 472)">-0.3</text></g><g clip-path="url(#clip30)"><text font-family="Calibri,Calibri_MSFontService,sans-serif" font-weight="400" font-size="13" transform="translate(446.612 472)">-0.1</text></g><g clip-path="url(#clip31)"><text font-family="Calibri,Calibri_MSFontService,sans-serif" font-weight="400" font-size="13" transform="translate(505.351 472)">0.1</text></g><g clip-path="url(#clip32)"><text font-family="Calibri,Calibri_MSFontService,sans-serif" font-weight="400" font-size="13" transform="translate(562.049 472)">0.3</text></g><g clip-path="url(#clip33)"><text font-family="Calibri,Calibri_MSFontService,sans-serif" font-weight="400" font-size="13" transform="translate(618.748 472)">0.5</text></g><g clip-path="url(#clip34)"><text font-family="Calibri,Calibri_MSFontService,sans-serif" font-weight="400" font-size="13" transform="translate(675.447 472)">0.7</text></g><g clip-path="url(#clip35)"><text font-family="Times New Roman,Times New Roman_MSFontService,sans-serif" font-weight="700" font-size="13" transform="matrix(6.12323e-17 -1 1 6.12323e-17 281.667 385)">Mediation Effect</text></g><g clip-path="url(#clip36)"><text font-family="Times New Roman,Times New Roman_MSFontService,sans-serif" font-weight="700" font-size="13" transform="translate(450.638 491)">Neuroticism</text></g></g></svg>