<svg width="456" height="304" xmlns="http://www.w3.org/2000/svg" xmlns:xlink="http://www.w3.org/1999/xlink" overflow="hidden"><defs><clipPath id="clip0"><path d="M252 208 708 208 708 512 252 512Z" fill-rule="evenodd" clip-rule="evenodd"/></clipPath><clipPath id="clip1"><path d="M253 209 707 209 707 511 253 511Z" fill-rule="evenodd" clip-rule="evenodd"/></clipPath><clipPath id="clip2"><path d="M287 223 684 223 684 451 287 451Z" fill-rule="evenodd" clip-rule="evenodd"/></clipPath><clipPath id="clip3"><path d="M253 209 707 209 707 511 253 511Z" fill-rule="evenodd" clip-rule="evenodd"/></clipPath><clipPath id="clip4"><path d="M287 223 684 223 684 451 287 451Z" fill-rule="evenodd" clip-rule="evenodd"/></clipPath><clipPath id="clip5"><path d="M287 223 684 223 684 451 287 451Z" fill-rule="evenodd" clip-rule="evenodd"/></clipPath><clipPath id="clip6"><path d="M253 209 707 209 707 511 253 511Z" fill-rule="evenodd" clip-rule="evenodd"/></clipPath><clipPath id="clip7"><path d="M253 209 707 209 707 511 253 511Z" fill-rule="evenodd" clip-rule="evenodd"/></clipPath><clipPath id="clip8"><path d="M287 223 684 223 684 451 287 451Z" fill-rule="evenodd" clip-rule="evenodd"/></clipPath><clipPath id="clip9"><path d="M253 209 707 209 707 511 253 511Z" fill-rule="evenodd" clip-rule="evenodd"/></clipPath><clipPath id="clip10"><path d="M253 209 707 209 707 511 253 511Z" fill-rule="evenodd" clip-rule="evenodd"/></clipPath><clipPath id="clip11"><path d="M253 209 707 209 707 511 253 511Z" fill-rule="evenodd" clip-rule="evenodd"/></clipPath><clipPath id="clip12"><path d="M253 209 707 209 707 511 253 511Z" fill-rule="evenodd" clip-rule="evenodd"/></clipPath><clipPath id="clip13"><path d="M253 209 707 209 707 511 253 511Z" fill-rule="evenodd" clip-rule="evenodd"/></clipPath><clipPath id="clip14"><path d="M253 209 707 209 707 511 253 511Z" fill-rule="evenodd" clip-rule="evenodd"/></clipPath><clipPath id="clip15"><path d="M253 209 707 209 707 511 253 511Z" fill-rule="evenodd" clip-rule="evenodd"/></clipPath><clipPath id="clip16"><path d="M253 209 707 209 707 511 253 511Z" fill-rule="evenodd" clip-rule="evenodd"/></clipPath><clipPath id="clip17"><path d="M253 209 707 209 707 511 253 511Z" fill-rule="evenodd" clip-rule="evenodd"/></clipPath><clipPath id="clip18"><path d="M253 209 707 209 707 511 253 511Z" fill-rule="evenodd" clip-rule="evenodd"/></clipPath><clipPath id="clip19"><path d="M253 209 707 209 707 511 253 511Z" fill-rule="evenodd" clip-rule="evenodd"/></clipPath><clipPath id="clip20"><path d="M253 209 707 209 707 511 253 511Z" fill-rule="evenodd" clip-rule="evenodd"/></clipPath><clipPath id="clip21"><path d="M253 209 707 209 707 511 253 511Z" fill-rule="evenodd" clip-rule="evenodd"/></clipPath><clipPath id="clip22"><path d="M253 209 707 209 707 511 253 511Z" fill-rule="evenodd" clip-rule="evenodd"/></clipPath><clipPath id="clip23"><path d="M253 209 707 209 707 511 253 511Z" fill-rule="evenodd" clip-rule="evenodd"/></clipPath><clipPath id="clip24"><path d="M253 209 707 209 707 511 253 511Z" fill-rule="evenodd" clip-rule="evenodd"/></clipPath><clipPath id="clip25"><path d="M253 209 707 209 707 511 253 511Z" fill-rule="evenodd" clip-rule="evenodd"/></clipPath><clipPath id="clip26"><path d="M253 209 707 209 707 511 253 511Z" fill-rule="evenodd" clip-rule="evenodd"/></clipPath><clipPath id="clip27"><path d="M253 209 707 209 707 511 253 511Z" fill-rule="evenodd" clip-rule="evenodd"/></clipPath><clipPath id="clip28"><path d="M253 209 707 209 707 511 253 511Z" fill-rule="evenodd" clip-rule="evenodd"/></clipPath><clipPath id="clip29"><path d="M253 209 707 209 707 511 253 511Z" fill-rule="evenodd" clip-rule="evenodd"/></clipPath></defs><g clip-path="url(#clip0)" transform="translate(-252 -208)"><g clip-path="url(#clip1)"><path d="M287.5 450.5 683.5 450.5M287.5 417.5 683.5 417.5M287.5 385.5 683.5 385.5M287.5 353.5 683.5 353.5M287.5 320.5 683.5 320.5M287.5 288.5 683.5 288.5M287.5 256.5 683.5 256.5M287.5 223.5 683.5 223.5" stroke="#000000" stroke-width="0.666667" stroke-linejoin="round" stroke-miterlimit="10" fill="none"/></g><g clip-path="url(#clip2)"><path d="M330 380C373.987 366.429 410.629 355.119 461.962 339.286 513.296 323.452 579.321 303.095 638 285" stroke="#000000" stroke-width="2" stroke-linecap="round" stroke-linejoin="round" stroke-miterlimit="10" fill="none"/></g><g clip-path="url(#clip3)"><path d="M329.667 376.333 333.667 384.333 325.667 384.333Z" stroke="#000000" stroke-width="0.666667" stroke-linejoin="round" stroke-miterlimit="10"/><path d="M461.833 335.5 465.833 343.5 457.833 343.5Z" stroke="#000000" stroke-width="0.666667" stroke-linejoin="round" stroke-miterlimit="10"/><path d="M638.333 281.167 642.333 289.167 634.333 289.167Z" stroke="#000000" stroke-width="0.666667" stroke-linejoin="round" stroke-miterlimit="10"/></g><g clip-path="url(#clip4)"><path d="M330 414C374 397.333 410.652 379.693 462 364" stroke="#000000" stroke-width="2" stroke-linecap="round" stroke-linejoin="round" stroke-miterlimit="10" stroke-dasharray="6 8" fill="none"/></g><g clip-path="url(#clip5)"><path d="M461.962 364.083C513.296 348.416 579.321 334.694 638 320" stroke="#000000" stroke-width="2" stroke-linecap="round" stroke-linejoin="round" stroke-miterlimit="10" stroke-dasharray="6 8" fill="none"/></g><g clip-path="url(#clip6)"><path d="M325.667 410 333.667 410 333.667 418 325.667 418Z" stroke="#000000" stroke-width="0.666667" stroke-linejoin="round" stroke-miterlimit="10"/><path d="M457.833 360.167 465.833 360.167 465.833 368.167 457.833 368.167Z" stroke="#000000" stroke-width="0.666667" stroke-linejoin="round" stroke-miterlimit="10"/><path d="M634.333 316.167 642.333 316.167 642.333 324.167 634.333 324.167Z" stroke="#000000" stroke-width="0.666667" stroke-linejoin="round" stroke-miterlimit="10"/></g><g clip-path="url(#clip7)"><path d="M333.667 418 325.667 410M325.667 418 333.667 410" stroke="#000000" stroke-width="0.666667" stroke-linejoin="round" stroke-miterlimit="10"/><path d="M465.833 368.167 457.833 360.167M457.833 368.167 465.833 360.167" stroke="#000000" stroke-width="0.666667" stroke-linejoin="round" stroke-miterlimit="10"/><path d="M642.333 324.167 634.333 316.167M634.333 324.167 642.333 316.167" stroke="#000000" stroke-width="0.666667" stroke-linejoin="round" stroke-miterlimit="10"/></g><g clip-path="url(#clip8)"><path d="M330 347C373.987 336.367 410.629 331.267 461.962 315.101 513.296 298.934 579.321 271.7 638 250" stroke="#000000" stroke-width="2" stroke-linecap="round" stroke-linejoin="round" stroke-miterlimit="10" stroke-dasharray="6 8" fill="none"/></g><g clip-path="url(#clip9)"><path d="M325.667 342.667 333.667 342.667 333.667 350.667 325.667 350.667Z" stroke="#000000" stroke-width="0.666667" stroke-linejoin="round" stroke-miterlimit="10"/><path d="M457.833 311 465.833 311 465.833 319 457.833 319Z" stroke="#000000" stroke-width="0.666667" stroke-linejoin="round" stroke-miterlimit="10"/><path d="M634.333 246.167 642.333 246.167 642.333 254.167 634.333 254.167Z" stroke="#000000" stroke-width="0.666667" stroke-linejoin="round" stroke-miterlimit="10"/></g><g clip-path="url(#clip10)"><text font-family="Calibri,Calibri_MSFontService,sans-serif" font-weight="400" font-size="13" transform="translate(341.599 385)">0.008</text></g><g clip-path="url(#clip11)"><text font-family="Calibri,Calibri_MSFontService,sans-serif" font-weight="400" font-size="13" transform="translate(473.896 344)">0.071</text></g><g clip-path="url(#clip12)"><text font-family="Calibri,Calibri_MSFontService,sans-serif" font-weight="400" font-size="13" transform="translate(650.38 290)">0.155</text></g><g clip-path="url(#clip13)"><text font-family="Calibri,Calibri_MSFontService,sans-serif" font-weight="400" font-size="13" transform="translate(312.356 437)">-</text></g><g clip-path="url(#clip14)"><text font-family="Calibri,Calibri_MSFontService,sans-serif" font-weight="400" font-size="13" transform="translate(316.436 437)">0.044</text></g><g clip-path="url(#clip15)"><text font-family="Calibri,Calibri_MSFontService,sans-serif" font-weight="400" font-size="13" transform="translate(446.693 387)">0.033</text></g><g clip-path="url(#clip16)"><text font-family="Calibri,Calibri_MSFontService,sans-serif" font-weight="400" font-size="13" transform="translate(623.177 343)">0.101</text></g><g clip-path="url(#clip17)"><text font-family="Calibri,Calibri_MSFontService,sans-serif" font-weight="400" font-size="13" transform="translate(314.396 333)">0.060</text></g><g clip-path="url(#clip18)"><text font-family="Calibri,Calibri_MSFontService,sans-serif" font-weight="400" font-size="13" transform="translate(446.693 302)">0.109</text></g><g clip-path="url(#clip19)"><text font-family="Calibri,Calibri_MSFontService,sans-serif" font-weight="400" font-size="13" transform="translate(623.177 237)">0.209</text></g><g clip-path="url(#clip20)"><text font-family="Calibri,Calibri_MSFontService,sans-serif" font-weight="400" font-size="13" transform="translate(276.517 472)">-0.7</text></g><g clip-path="url(#clip21)"><text font-family="Calibri,Calibri_MSFontService,sans-serif" font-weight="400" font-size="13" transform="translate(329.435 472)">-0.5</text></g><g clip-path="url(#clip22)"><text font-family="Calibri,Calibri_MSFontService,sans-serif" font-weight="400" font-size="13" transform="translate(382.354 472)">-0.3</text></g><g clip-path="url(#clip23)"><text font-family="Calibri,Calibri_MSFontService,sans-serif" font-weight="400" font-size="13" transform="translate(435.273 472)">-0.1</text></g><g clip-path="url(#clip24)"><text font-family="Calibri,Calibri_MSFontService,sans-serif" font-weight="400" font-size="13" transform="translate(490.231 472)">0.1</text></g><g clip-path="url(#clip25)"><text font-family="Calibri,Calibri_MSFontService,sans-serif" font-weight="400" font-size="13" transform="translate(543.15 472)">0.3</text></g><g clip-path="url(#clip26)"><text font-family="Calibri,Calibri_MSFontService,sans-serif" font-weight="400" font-size="13" transform="translate(596.069 472)">0.5</text></g><g clip-path="url(#clip27)"><text font-family="Calibri,Calibri_MSFontService,sans-serif" font-weight="400" font-size="13" transform="translate(648.987 472)">0.7</text></g><g clip-path="url(#clip28)"><text font-family="Times New Roman,Times New Roman_MSFontService,sans-serif" font-weight="700" font-size="13" transform="matrix(6.12323e-17 -1 1 6.12323e-17 281.667 385)">Mediation Effect</text></g><g clip-path="url(#clip29)"><text font-family="Times New Roman,Times New Roman_MSFontService,sans-serif" font-weight="700" font-size="13" transform="translate(433.958 491)">Conscientiousness</text></g></g></svg>